<?xml version="1.0" encoding="UTF-8"?>
<?xml-stylesheet href="https://cdnjs.cloudflare.com/ajax/libs/font-awesome/6.7.2/css/all.min.css" type="text/css"?>
<svg id="graph-24" width="100%" xmlns="http://www.w3.org/2000/svg" class="flowchart" style="overflow: hidden; max-width: 100%; touch-action: none; user-select: none; -webkit-user-drag: none; -webkit-tap-highlight-color: rgba(0, 0, 0, 0); background-color: rgb(2, 8, 23);" role="graphics-document document" aria-roledescription="flowchart-v2" height="100%" xmlns:xlink="http://www.w3.org/1999/xlink" xmlns:ev="http://www.w3.org/2001/xml-events"><g id="viewport-20251201010905773" class="svg-pan-zoom_viewport" transform="matrix(0.8276701285312286,0,0,0.8276701285312286,130.45364995781938,297.56244248102064)" style="transform: matrix(0.82767, 0, 0, 0.82767, 130.454, 297.562);"><style>#graph-24{font-family:"trebuchet ms",verdana,arial,sans-serif;font-size:16px;fill:#ccc;}@keyframes edge-animation-frame{from{stroke-dashoffset:0;}}@keyframes dash{to{stroke-dashoffset:0;}}#graph-24 .edge-animation-slow{stroke-dasharray:9,5!important;stroke-dashoffset:900;animation:dash 50s linear infinite;stroke-linecap:round;}#graph-24 .edge-animation-fast{stroke-dasharray:9,5!important;stroke-dashoffset:900;animation:dash 20s linear infinite;stroke-linecap:round;}#graph-24 .error-icon{fill:#a44141;}#graph-24 .error-text{fill:#ddd;stroke:#ddd;}#graph-24 .edge-thickness-normal{stroke-width:1px;}#graph-24 .edge-thickness-thick{stroke-width:3.5px;}#graph-24 .edge-pattern-solid{stroke-dasharray:0;}#graph-24 .edge-thickness-invisible{stroke-width:0;fill:none;}#graph-24 .edge-pattern-dashed{stroke-dasharray:3;}#graph-24 .edge-pattern-dotted{stroke-dasharray:2;}#graph-24 .marker{fill:lightgrey;stroke:lightgrey;}#graph-24 .marker.cross{stroke:lightgrey;}#graph-24 svg{font-family:"trebuchet ms",verdana,arial,sans-serif;font-size:16px;}#graph-24 p{margin:0;}#graph-24 .label{font-family:"trebuchet ms",verdana,arial,sans-serif;color:#ccc;}#graph-24 .cluster-label text{fill:#F9FFFE;}#graph-24 .cluster-label span{color:#F9FFFE;}#graph-24 .cluster-label span p{background-color:transparent;}#graph-24 .label text,#graph-24 span{fill:#ccc;color:#ccc;}#graph-24 .node rect,#graph-24 .node circle,#graph-24 .node ellipse,#graph-24 .node polygon,#graph-24 .node path{fill:#1f2020;stroke:#ccc;stroke-width:1px;}#graph-24 .rough-node .label text,#graph-24 .node .label text,#graph-24 .image-shape .label,#graph-24 .icon-shape .label{text-anchor:middle;}#graph-24 .node .katex path{fill:#000;stroke:#000;stroke-width:1px;}#graph-24 .rough-node .label,#graph-24 .node .label,#graph-24 .image-shape .label,#graph-24 .icon-shape .label{text-align:center;}#graph-24 .node.clickable{cursor:pointer;}#graph-24 .root .anchor path{fill:lightgrey!important;stroke-width:0;stroke:lightgrey;}#graph-24 .arrowheadPath{fill:lightgrey;}#graph-24 .edgePath .path{stroke:lightgrey;stroke-width:2.0px;}#graph-24 .flowchart-link{stroke:lightgrey;fill:none;}#graph-24 .edgeLabel{background-color:hsl(0, 0%, 34.4117647059%);text-align:center;}#graph-24 .edgeLabel p{background-color:hsl(0, 0%, 34.4117647059%);}#graph-24 .edgeLabel rect{opacity:0.5;background-color:hsl(0, 0%, 34.4117647059%);fill:hsl(0, 0%, 34.4117647059%);}#graph-24 .labelBkg{background-color:rgba(87.75, 87.75, 87.75, 0.5);}#graph-24 .cluster rect{fill:hsl(180, 1.5873015873%, 28.3529411765%);stroke:rgba(255, 255, 255, 0.25);stroke-width:1px;}#graph-24 .cluster text{fill:#F9FFFE;}#graph-24 .cluster span{color:#F9FFFE;}#graph-24 div.mermaidTooltip{position:absolute;text-align:center;max-width:200px;padding:2px;font-family:"trebuchet ms",verdana,arial,sans-serif;font-size:12px;background:hsl(20, 1.5873015873%, 12.3529411765%);border:1px solid rgba(255, 255, 255, 0.25);border-radius:2px;pointer-events:none;z-index:100;}#graph-24 .flowchartTitleText{text-anchor:middle;font-size:18px;fill:#ccc;}#graph-24 rect.text{fill:none;stroke-width:0;}#graph-24 .icon-shape,#graph-24 .image-shape{background-color:hsl(0, 0%, 34.4117647059%);text-align:center;}#graph-24 .icon-shape p,#graph-24 .image-shape p{background-color:hsl(0, 0%, 34.4117647059%);padding:2px;}#graph-24 .icon-shape rect,#graph-24 .image-shape rect{opacity:0.5;background-color:hsl(0, 0%, 34.4117647059%);fill:hsl(0, 0%, 34.4117647059%);}#graph-24 .label-icon{display:inline-block;height:1em;overflow:visible;vertical-align:-0.125em;}#graph-24 .node .label-icon path{fill:currentColor;stroke:revert;stroke-width:revert;}#graph-24 :root{--mermaid-font-family:"trebuchet ms",verdana,arial,sans-serif;}</style><g><marker id="graph-24_flowchart-v2-pointEnd" class="marker flowchart-v2" viewBox="0 0 10 10" refX="5" refY="5" markerUnits="userSpaceOnUse" markerWidth="8" markerHeight="8" orient="auto"><path d="M 0 0 L 10 5 L 0 10 z" class="arrowMarkerPath" style="stroke-width: 1; stroke-dasharray: 1, 0;"></path></marker><marker id="graph-24_flowchart-v2-pointStart" class="marker flowchart-v2" viewBox="0 0 10 10" refX="4.5" refY="5" markerUnits="userSpaceOnUse" markerWidth="8" markerHeight="8" orient="auto"><path d="M 0 5 L 10 10 L 10 0 z" class="arrowMarkerPath" style="stroke-width: 1; stroke-dasharray: 1, 0;"></path></marker><marker id="graph-24_flowchart-v2-circleEnd" class="marker flowchart-v2" viewBox="0 0 10 10" refX="11" refY="5" markerUnits="userSpaceOnUse" markerWidth="11" markerHeight="11" orient="auto"><circle cx="5" cy="5" r="5" class="arrowMarkerPath" style="stroke-width: 1; stroke-dasharray: 1, 0;"></circle></marker><marker id="graph-24_flowchart-v2-circleStart" class="marker flowchart-v2" viewBox="0 0 10 10" refX="-1" refY="5" markerUnits="userSpaceOnUse" markerWidth="11" markerHeight="11" orient="auto"><circle cx="5" cy="5" r="5" class="arrowMarkerPath" style="stroke-width: 1; stroke-dasharray: 1, 0;"></circle></marker><marker id="graph-24_flowchart-v2-crossEnd" class="marker cross flowchart-v2" viewBox="0 0 11 11" refX="12" refY="5.2" markerUnits="userSpaceOnUse" markerWidth="11" markerHeight="11" orient="auto"><path d="M 1,1 l 9,9 M 10,1 l -9,9" class="arrowMarkerPath" style="stroke-width: 2; stroke-dasharray: 1, 0;"></path></marker><marker id="graph-24_flowchart-v2-crossStart" class="marker cross flowchart-v2" viewBox="0 0 11 11" refX="-1" refY="5.2" markerUnits="userSpaceOnUse" markerWidth="11" markerHeight="11" orient="auto"><path d="M 1,1 l 9,9 M 10,1 l -9,9" class="arrowMarkerPath" style="stroke-width: 2; stroke-dasharray: 1, 0;"></path></marker><g class="root"><g class="clusters"></g><g class="edgePaths"><path d="M148.922,163.746L153.089,163.746C157.255,163.746,165.589,163.746,173.339,163.816C181.089,163.887,188.256,164.027,191.839,164.097L195.423,164.168" id="L_A_B_0" class="edge-thickness-normal edge-pattern-solid edge-thickness-normal edge-pattern-solid flowchart-link" style=";" data-edge="true" data-et="edge" data-id="L_A_B_0" data-points="W3sieCI6MTQ4LjkyMTg3NSwieSI6MTYzLjc0NjA5Mzc1fSx7IngiOjE3My45MjE4NzUsInkiOjE2My43NDYwOTM3NX0seyJ4IjoxOTkuNDIxODc1LCJ5IjoxNjQuMjQ2MDkzNzV9XQ==" marker-end="url(#graph-24_flowchart-v2-pointEnd)"></path><path d="M322.652,137.246L332.546,131.066C342.44,124.885,362.228,112.525,375.622,106.344C389.016,100.164,396.016,100.164,399.516,100.164L403.016,100.164" id="L_B_C_0" class="edge-thickness-normal edge-pattern-solid edge-thickness-normal edge-pattern-solid flowchart-link" style=";" data-edge="true" data-et="edge" data-id="L_B_C_0" data-points="W3sieCI6MzIyLjY1MjA3NjE2NTc1NTQsInkiOjEzNy4yNDYwOTM3NX0seyJ4IjozODIuMDE1NjI1LCJ5IjoxMDAuMTY0MDYyNX0seyJ4Ijo0MDcuMDE1NjI1LCJ5IjoxMDAuMTY0MDYyNX1d" marker-end="url(#graph-24_flowchart-v2-pointEnd)"></path><path d="M565.043,73.863L575.769,69.58C586.495,65.297,607.947,56.73,632.799,52.447C657.651,48.164,685.904,48.164,700.03,48.164L714.156,48.164" id="L_C_D_0" class="edge-thickness-normal edge-pattern-solid edge-thickness-normal edge-pattern-solid flowchart-link" style=";" data-edge="true" data-et="edge" data-id="L_C_D_0" data-points="W3sieCI6NTY1LjA0Mjc3MjQ2NjEyOTMsInkiOjczLjg2MzA4NDk2NjEyOTN9LHsieCI6NjI5LjM5ODQzNzUsInkiOjQ4LjE2NDA2MjV9LHsieCI6NzE4LjE1NjI1LCJ5Ijo0OC4xNjQwNjI1fV0=" marker-end="url(#graph-24_flowchart-v2-pointEnd)"></path><path d="M565.043,126.465L575.769,130.748C586.495,135.031,607.947,143.598,624.348,147.881C640.75,152.164,652.102,152.164,657.777,152.164L663.453,152.164" id="L_C_E_0" class="edge-thickness-normal edge-pattern-solid edge-thickness-normal edge-pattern-solid flowchart-link" style=";" data-edge="true" data-et="edge" data-id="L_C_E_0" data-points="W3sieCI6NTY1LjA0Mjc3MjQ2NjEyOTMsInkiOjEyNi40NjUwNDAwMzM4NzA3fSx7IngiOjYyOS4zOTg0Mzc1LCJ5IjoxNTIuMTY0MDYyNX0seyJ4Ijo2NjcuNDUzMTI1LCJ5IjoxNTIuMTY0MDYyNX1d" marker-end="url(#graph-24_flowchart-v2-pointEnd)"></path><path d="M857.281,48.164L869.898,48.164C882.516,48.164,907.75,48.164,929.857,52.077C951.964,55.989,970.944,63.814,980.434,67.727L989.923,71.639" id="L_D_F_0" class="edge-thickness-normal edge-pattern-solid edge-thickness-normal edge-pattern-solid flowchart-link" style=";" data-edge="true" data-et="edge" data-id="L_D_F_0" data-points="W3sieCI6ODU3LjI4MTI1LCJ5Ijo0OC4xNjQwNjI1fSx7IngiOjkzMi45ODQzNzUsInkiOjQ4LjE2NDA2MjV9LHsieCI6OTkzLjYyMTM5NDIzMDc2OTMsInkiOjczLjE2NDA2MjV9XQ==" marker-end="url(#graph-24_flowchart-v2-pointEnd)"></path><path d="M907.984,152.164L912.151,152.164C916.318,152.164,924.651,152.164,938.308,148.252C951.964,144.339,970.944,136.514,980.434,132.601L989.923,128.689" id="L_E_F_0" class="edge-thickness-normal edge-pattern-solid edge-thickness-normal edge-pattern-solid flowchart-link" style=";" data-edge="true" data-et="edge" data-id="L_E_F_0" data-points="W3sieCI6OTA3Ljk4NDM3NSwieSI6MTUyLjE2NDA2MjV9LHsieCI6OTMyLjk4NDM3NSwieSI6MTUyLjE2NDA2MjV9LHsieCI6OTkzLjYyMTM5NDIzMDc2OTMsInkiOjEyNy4xNjQwNjI1fV0=" marker-end="url(#graph-24_flowchart-v2-pointEnd)"></path><path d="M1160.234,100.164L1164.401,100.164C1168.568,100.164,1176.901,100.164,1184.568,100.164C1192.234,100.164,1199.234,100.164,1202.734,100.164L1206.234,100.164" id="L_F_G_0" class="edge-thickness-normal edge-pattern-solid edge-thickness-normal edge-pattern-solid flowchart-link" style=";" data-edge="true" data-et="edge" data-id="L_F_G_0" data-points="W3sieCI6MTE2MC4yMzQzNzUsInkiOjEwMC4xNjQwNjI1fSx7IngiOjExODUuMjM0Mzc1LCJ5IjoxMDAuMTY0MDYyNX0seyJ4IjoxMjEwLjIzNDM3NSwieSI6MTAwLjE2NDA2MjV9XQ==" marker-end="url(#graph-24_flowchart-v2-pointEnd)"></path><path d="M1371.094,100.164L1375.26,100.164C1379.427,100.164,1387.76,100.164,1395.427,100.164C1403.094,100.164,1410.094,100.164,1413.594,100.164L1417.094,100.164" id="L_G_H_0" class="edge-thickness-normal edge-pattern-solid edge-thickness-normal edge-pattern-solid flowchart-link" style=";" data-edge="true" data-et="edge" data-id="L_G_H_0" data-points="W3sieCI6MTM3MS4wOTM3NSwieSI6MTAwLjE2NDA2MjV9LHsieCI6MTM5Ni4wOTM3NSwieSI6MTAwLjE2NDA2MjV9LHsieCI6MTQyMS4wOTM3NSwieSI6MTAwLjE2NDA2MjV9XQ==" marker-end="url(#graph-24_flowchart-v2-pointEnd)"></path><path d="M1611.828,100.164L1615.995,100.164C1620.161,100.164,1628.495,100.164,1643.067,105.938C1657.639,111.711,1678.451,123.258,1688.856,129.032L1699.262,134.805" id="L_H_I_0" class="edge-thickness-normal edge-pattern-solid edge-thickness-normal edge-pattern-solid flowchart-link" style=";" data-edge="true" data-et="edge" data-id="L_H_I_0" data-points="W3sieCI6MTYxMS44MjgxMjUsInkiOjEwMC4xNjQwNjI1fSx7IngiOjE2MzYuODI4MTI1LCJ5IjoxMDAuMTY0MDYyNX0seyJ4IjoxNzAyLjc1OTgzNjU0MDgyNDQsInkiOjEzNi43NDYwOTM3NX1d" marker-end="url(#graph-24_flowchart-v2-pointEnd)"></path><path d="M1714.144,190.746L1701.258,200.079C1688.372,209.413,1662.6,228.079,1629.653,237.413C1596.706,246.746,1556.583,246.746,1516.461,246.746C1476.339,246.746,1436.216,246.746,1398.583,246.746C1360.951,246.746,1325.807,246.746,1290.664,246.746C1255.521,246.746,1220.378,246.746,1181.785,246.746C1143.193,246.746,1101.151,246.746,1059.109,246.746C1017.068,246.746,975.026,246.746,929.794,246.746C884.563,246.746,836.141,246.746,785.543,246.746C734.945,246.746,682.172,246.746,634.082,246.746C585.992,246.746,542.586,246.746,501.355,246.746C460.125,246.746,421.07,246.746,390.448,237.911C359.825,229.077,337.635,211.407,326.54,202.572L315.444,193.738" id="L_I_B_0" class="edge-thickness-normal edge-pattern-solid edge-thickness-normal edge-pattern-solid flowchart-link" style=";" data-edge="true" data-et="edge" data-id="L_I_B_0" data-points="W3sieCI6MTcxNC4xNDQzOTAwNjAyNDEsInkiOjE5MC43NDYwOTM3NX0seyJ4IjoxNjM2LjgyODEyNSwieSI6MjQ2Ljc0NjA5Mzc1fSx7IngiOjE1MTYuNDYwOTM3NSwieSI6MjQ2Ljc0NjA5Mzc1fSx7IngiOjEzOTYuMDkzNzUsInkiOjI0Ni43NDYwOTM3NX0seyJ4IjoxMjkwLjY2NDA2MjUsInkiOjI0Ni43NDYwOTM3NX0seyJ4IjoxMTg1LjIzNDM3NSwieSI6MjQ2Ljc0NjA5Mzc1fSx7IngiOjEwNTkuMTA5Mzc1LCJ5IjoyNDYuNzQ2MDkzNzV9LHsieCI6OTMyLjk4NDM3NSwieSI6MjQ2Ljc0NjA5Mzc1fSx7IngiOjc4Ny43MTg3NSwieSI6MjQ2Ljc0NjA5Mzc1fSx7IngiOjYyOS4zOTg0Mzc1LCJ5IjoyNDYuNzQ2MDkzNzV9LHsieCI6NDk5LjE3OTY4NzUsInkiOjI0Ni43NDYwOTM3NX0seyJ4IjozODIuMDE1NjI1LCJ5IjoyNDYuNzQ2MDkzNzV9LHsieCI6MzEyLjMxNTMyMzc5NTE4MDc1LCJ5IjoxOTEuMjQ2MDkzNzV9XQ==" marker-end="url(#graph-24_flowchart-v2-pointEnd)"></path></g><g class="edgeLabels"><g class="edgeLabel"><g class="label" data-id="L_A_B_0" transform="translate(0, 0)"><foreignObject width="0" height="0"><div xmlns="http://www.w3.org/1999/xhtml" class="labelBkg" style="display: table-cell; white-space: nowrap; line-height: 1.5; max-width: 200px; text-align: center;"><span class="edgeLabel"></span></div></foreignObject></g></g><g class="edgeLabel"><g class="label" data-id="L_B_C_0" transform="translate(0, 0)"><foreignObject width="0" height="0"><div xmlns="http://www.w3.org/1999/xhtml" class="labelBkg" style="display: table-cell; white-space: nowrap; line-height: 1.5; max-width: 200px; text-align: center;"><span class="edgeLabel"></span></div></foreignObject></g></g><g class="edgeLabel" transform="translate(629.3984375, 48.1640625)"><g class="label" data-id="L_C_D_0" transform="translate(-13.0546875, -12)"><foreignObject width="26.109375" height="24"><div xmlns="http://www.w3.org/1999/xhtml" class="labelBkg" style="display: table-cell; white-space: nowrap; line-height: 1.5; max-width: 200px; text-align: center;"><span class="edgeLabel"><p>Yes</p></span></div></foreignObject></g></g><g class="edgeLabel" transform="translate(629.3984375, 152.1640625)"><g class="label" data-id="L_C_E_0" transform="translate(-10.2265625, -12)"><foreignObject width="20.453125" height="24"><div xmlns="http://www.w3.org/1999/xhtml" class="labelBkg" style="display: table-cell; white-space: nowrap; line-height: 1.5; max-width: 200px; text-align: center;"><span class="edgeLabel"><p>No</p></span></div></foreignObject></g></g><g class="edgeLabel"><g class="label" data-id="L_D_F_0" transform="translate(0, 0)"><foreignObject width="0" height="0"><div xmlns="http://www.w3.org/1999/xhtml" class="labelBkg" style="display: table-cell; white-space: nowrap; line-height: 1.5; max-width: 200px; text-align: center;"><span class="edgeLabel"></span></div></foreignObject></g></g><g class="edgeLabel"><g class="label" data-id="L_E_F_0" transform="translate(0, 0)"><foreignObject width="0" height="0"><div xmlns="http://www.w3.org/1999/xhtml" class="labelBkg" style="display: table-cell; white-space: nowrap; line-height: 1.5; max-width: 200px; text-align: center;"><span class="edgeLabel"></span></div></foreignObject></g></g><g class="edgeLabel"><g class="label" data-id="L_F_G_0" transform="translate(0, 0)"><foreignObject width="0" height="0"><div xmlns="http://www.w3.org/1999/xhtml" class="labelBkg" style="display: table-cell; white-space: nowrap; line-height: 1.5; max-width: 200px; text-align: center;"><span class="edgeLabel"></span></div></foreignObject></g></g><g class="edgeLabel"><g class="label" data-id="L_G_H_0" transform="translate(0, 0)"><foreignObject width="0" height="0"><div xmlns="http://www.w3.org/1999/xhtml" class="labelBkg" style="display: table-cell; white-space: nowrap; line-height: 1.5; max-width: 200px; text-align: center;"><span class="edgeLabel"></span></div></foreignObject></g></g><g class="edgeLabel"><g class="label" data-id="L_H_I_0" transform="translate(0, 0)"><foreignObject width="0" height="0"><div xmlns="http://www.w3.org/1999/xhtml" class="labelBkg" style="display: table-cell; white-space: nowrap; line-height: 1.5; max-width: 200px; text-align: center;"><span class="edgeLabel"></span></div></foreignObject></g></g><g class="edgeLabel"><g class="label" data-id="L_I_B_0" transform="translate(0, 0)"><foreignObject width="0" height="0"><div xmlns="http://www.w3.org/1999/xhtml" class="labelBkg" style="display: table-cell; white-space: nowrap; line-height: 1.5; max-width: 200px; text-align: center;"><span class="edgeLabel"></span></div></foreignObject></g></g></g><g class="nodes"><g class="node default" id="flowchart-A-0" transform="translate(78.4609375, 163.74609375)"><rect class="basic label-container" style="" x="-70.4609375" y="-27" width="140.921875" height="54"></rect><g class="label" style="" transform="translate(-40.4609375, -12)"><rect></rect><foreignObject width="80.921875" height="24"><div xmlns="http://www.w3.org/1999/xhtml" style="display: table-cell; white-space: nowrap; line-height: 1.5; max-width: 200px; text-align: center;"><span class="nodeLabel"><p>Raw Image</p></span></div></foreignObject></g></g><g class="node default" id="flowchart-B-1" transform="translate(277.96875, 163.74609375)"><g class="basic label-container outer-path"><path d="M-74.046875 -27 C-20.110047456315847 -27, 33.826780087368306 -27, 74.046875 -27 C74.046875 -27, 74.046875 -27, 74.046875 -27 C74.18031910268722 -26.99448071108653, 74.31376320537444 -26.988961422173062, 74.45977172736166 -26.982922465033347 C74.61690403266591 -26.963335943603298, 74.77403633797016 -26.943749422173244, 74.86984795140367 -26.931806517013612 C74.97659965223858 -26.90942303917588, 75.08335135307348 -26.887039561338145, 75.274302435704 -26.847001329696653 C75.37064084566966 -26.818320142384223, 75.46697925563532 -26.789638955071794, 75.67037234602341 -26.729086208503173 C75.81873374389679 -26.67119541141131, 75.96709514177017 -26.613304614319446, 76.05535212326485 -26.578866633275286 C76.13778263774508 -26.538568810271318, 76.22021315222528 -26.498270987267347, 76.42661196518537 -26.397368756032446 C76.50398437328003 -26.351264807946013, 76.5813567813747 -26.305160859859576, 76.78161579061214 -26.185832391312644 C76.91307015465797 -26.091975779377865, 77.04452451870382 -25.998119167443086, 77.11793856344833 -25.94570254698197 C77.18855771090873 -25.885891180077518, 77.25917685836912 -25.826079813173063, 77.4332828581287 -25.678619553365657 C77.51764128009614 -25.594261131398216, 77.6019997020636 -25.50990270943078, 77.72549455336566 -25.386407858128706 C77.79537418233889 -25.30390113610676, 77.86525381131213 -25.22139441408481, 77.99257754698196 -25.07106356344834 C78.0725758686649 -24.959018942565656, 78.15257419034785 -24.846974321682968, 78.23270739131264 -24.734740790612136 C78.31418085520923 -24.598010676183023, 78.39565431910582 -24.461280561753906, 78.44424375603245 -24.37973696518537 C78.50481904384932 -24.255828233464538, 78.5653943316662 -24.131919501743706, 78.62574163327528 -24.008477123264846 C78.65687483882638 -23.92868955550153, 78.68800804437747 -23.84890198773822, 78.77596120850318 -23.623497346023417 C78.81654063648345 -23.487193450150826, 78.85712006446371 -23.350889554278236, 78.89387632969665 -23.227427435703994 C78.91182662218219 -23.141818565303822, 78.92977691466774 -23.056209694903654, 78.97868151701361 -22.82297295140367 C78.99002726774549 -22.731951992206085, 79.00137301847737 -22.6409310330085, 79.02979746503335 -22.412896727361662 C79.03356031699916 -22.321919354733634, 79.03732316896497 -22.23094198210561, 79.046875 -22 C79.046875 -22, 79.046875 -22, 79.046875 -22 C79.046875 -4.448077871535091, 79.046875 13.103844256929818, 79.046875 22 C79.046875 22, 79.046875 22, 79.046875 22 C79.04037040000429 22.15726672826436, 79.03386580000858 22.314533456528718, 79.02979746503335 22.412896727361662 C79.01404163166738 22.539297447756358, 78.99828579830141 22.665698168151053, 78.97868151701361 22.82297295140367 C78.95705876819719 22.92609656917265, 78.93543601938077 23.02922018694163, 78.89387632969665 23.227427435703994 C78.86920832001691 23.310285819622223, 78.84454031033717 23.393144203540455, 78.77596120850318 23.623497346023417 C78.71698089233755 23.774650941982042, 78.65800057617191 23.92580453794067, 78.62574163327528 24.008477123264846 C78.55316889642266 24.156927029241395, 78.48059615957006 24.30537693521794, 78.44424375603245 24.379736965185366 C78.40028751008566 24.453505064032953, 78.35633126413887 24.52727316288054, 78.23270739131264 24.734740790612133 C78.14656579139978 24.855389608005055, 78.0604241914869 24.976038425397977, 77.99257754698196 25.07106356344834 C77.93099058424511 25.143779152946557, 77.86940362150827 25.21649474244477, 77.72549455336566 25.386407858128706 C77.63604687658987 25.475855534904497, 77.54659919981408 25.565303211680288, 77.4332828581287 25.678619553365657 C77.31956869755605 25.7749305345207, 77.20585453698338 25.871241515675745, 77.11793856344833 25.94570254698197 C76.9883219168751 26.038247053860946, 76.85870527030185 26.130791560739922, 76.78161579061214 26.185832391312644 C76.66562875231769 26.25494566468633, 76.54964171402324 26.324058938060013, 76.42661196518537 26.397368756032446 C76.33554951017992 26.441886477622035, 76.24448705517446 26.486404199211623, 76.05535212326485 26.578866633275286 C75.90427264807178 26.63781802742844, 75.75319317287872 26.6967694215816, 75.67037234602341 26.729086208503173 C75.55336775823562 26.763919983525525, 75.43636317044783 26.798753758547882, 75.274302435704 26.847001329696653 C75.11792706192789 26.87978979757032, 74.96155168815179 26.91257826544399, 74.86984795140367 26.931806517013612 C74.7683656931512 26.944456267312784, 74.66688343489871 26.95710601761196, 74.45977172736166 26.982922465033347 C74.36317207782454 26.986917856092216, 74.26657242828742 26.990913247151084, 74.046875 27 C74.046875 27, 74.046875 27, 74.046875 27 C18.152020415505866 27, -37.74283416898827 27, -74.046875 27 C-74.046875 27, -74.046875 27, -74.046875 27 C-74.14371101849248 26.995994832648822, -74.24054703698495 26.991989665297645, -74.45977172736166 26.982922465033347 C-74.62092227423206 26.96283507031442, -74.78207282110247 26.94274767559549, -74.86984795140367 26.931806517013612 C-74.99029013463814 26.906552446885716, -75.1107323178726 26.88129837675782, -75.274302435704 26.847001329696653 C-75.35405580231912 26.82325772371955, -75.43380916893425 26.799514117742447, -75.67037234602341 26.729086208503173 C-75.81798815946749 26.671486339358406, -75.96560397291157 26.61388647021364, -76.05535212326485 26.578866633275286 C-76.13176239393407 26.541511928133264, -76.2081726646033 26.504157222991246, -76.42661196518537 26.397368756032446 C-76.53812359277049 26.33092224860401, -76.64963522035559 26.264475741175573, -76.78161579061214 26.185832391312644 C-76.85841246437103 26.13100062015626, -76.9352091381299 26.076168848999874, -77.11793856344833 25.94570254698197 C-77.24219205330775 25.840465209256987, -77.36644554316716 25.735227871532, -77.4332828581287 25.67861955336566 C-77.5438655003363 25.56803691115807, -77.65444814254388 25.45745426895048, -77.72549455336566 25.386407858128706 C-77.78823470457986 25.312330701568136, -77.85097485579406 25.238253545007566, -77.99257754698196 25.07106356344834 C-78.06454613820189 24.970265279821135, -78.13651472942182 24.869466996193932, -78.23270739131264 24.734740790612133 C-78.31439102555488 24.59765796483338, -78.39607465979712 24.460575139054626, -78.44424375603245 24.37973696518537 C-78.50443688116833 24.256609959723196, -78.56463000630423 24.13348295426102, -78.62574163327528 24.00847712326485 C-78.66799584620173 23.90018885620474, -78.71025005912817 23.791900589144625, -78.77596120850318 23.623497346023417 C-78.8000581450796 23.54255716284589, -78.82415508165604 23.461616979668356, -78.89387632969665 23.227427435703994 C-78.91187316780923 23.14159657902945, -78.92987000592181 23.055765722354902, -78.97868151701361 22.82297295140367 C-78.99049480310782 22.72820120319757, -79.00230808920205 22.633429454991475, -79.02979746503335 22.412896727361662 C-79.0334168753833 22.325387453254606, -79.03703628573324 22.23787817914755, -79.046875 22 C-79.046875 22, -79.046875 22, -79.046875 22 C-79.046875 11.347954931875428, -79.046875 0.6959098637508561, -79.046875 -22 C-79.046875 -22, -79.046875 -22, -79.046875 -22 C-79.0423481829503 -22.10944834537488, -79.03782136590063 -22.218896690749755, -79.02979746503335 -22.41289672736166 C-79.01337830229765 -22.544618988562494, -78.99695913956197 -22.676341249763333, -78.97868151701361 -22.82297295140367 C-78.94767313714885 -22.97085869617908, -78.91666475728411 -23.118744440954487, -78.89387632969665 -23.227427435703994 C-78.85259636561565 -23.36608439086008, -78.81131640153467 -23.50474134601617, -78.77596120850318 -23.623497346023417 C-78.74282624205364 -23.70841498730481, -78.7096912756041 -23.793332628586203, -78.62574163327528 -24.008477123264846 C-78.56910514086769 -24.124328920198206, -78.51246864846011 -24.24018071713157, -78.44424375603245 -24.379736965185366 C-78.36621017764014 -24.510694206876188, -78.28817659924783 -24.64165144856701, -78.23270739131264 -24.734740790612133 C-78.14994670057531 -24.850654350079108, -78.06718600983798 -24.96656790954608, -77.99257754698196 -25.07106356344834 C-77.88652477518872 -25.196279834492852, -77.78047200339547 -25.321496105537364, -77.72549455336566 -25.386407858128706 C-77.62442765596302 -25.487474755531345, -77.52336075856037 -25.588541652933987, -77.4332828581287 -25.678619553365657 C-77.3262492984662 -25.769272354175158, -77.2192157388037 -25.859925154984655, -77.11793856344833 -25.945702546981966 C-77.044050357683 -25.998457711904873, -76.97016215191766 -26.051212876827776, -76.78161579061214 -26.185832391312644 C-76.67888756061129 -26.24704512980175, -76.57615933061042 -26.308257868290855, -76.42661196518537 -26.397368756032446 C-76.33132792784711 -26.443950283467682, -76.23604389050884 -26.490531810902922, -76.05535212326485 -26.578866633275286 C-75.94482868113724 -26.621993014219502, -75.83430523900962 -26.66511939516372, -75.67037234602341 -26.729086208503173 C-75.51467636852976 -26.775438909319792, -75.35898039103611 -26.821791610136412, -75.274302435704 -26.847001329696653 C-75.17166447069859 -26.868522247836978, -75.06902650569319 -26.890043165977303, -74.86984795140367 -26.931806517013612 C-74.76614156247732 -26.94473350491216, -74.66243517355096 -26.957660492810714, -74.45977172736167 -26.982922465033347 C-74.30485728954663 -26.989329773576408, -74.14994285173158 -26.995737082119465, -74.046875 -27 C-74.046875 -27, -74.046875 -27, -74.046875 -27" stroke="none" stroke-width="0" fill="#1f2020" style=""></path><path d="M-74.046875 -27 C-35.513389894199 -27, 3.0200952116019977 -27, 74.046875 -27 M-74.046875 -27 C-40.95113501765432 -27, -7.855395035308646 -27, 74.046875 -27 M74.046875 -27 C74.046875 -27, 74.046875 -27, 74.046875 -27 M74.046875 -27 C74.046875 -27, 74.046875 -27, 74.046875 -27 M74.046875 -27 C74.2080122205773 -26.993335315258076, 74.36914944115459 -26.98667063051615, 74.45977172736166 -26.982922465033347 M74.046875 -27 C74.14271688809814 -26.99603595018608, 74.23855877619627 -26.99207190037216, 74.45977172736166 -26.982922465033347 M74.45977172736166 -26.982922465033347 C74.60252729603353 -26.965128001955645, 74.74528286470542 -26.947333538877942, 74.86984795140367 -26.931806517013612 M74.45977172736166 -26.982922465033347 C74.57556282999424 -26.968489119142248, 74.69135393262681 -26.954055773251145, 74.86984795140367 -26.931806517013612 M74.86984795140367 -26.931806517013612 C74.95176746623892 -26.914629801041393, 75.03368698107417 -26.89745308506917, 75.274302435704 -26.847001329696653 M74.86984795140367 -26.931806517013612 C74.98426240541056 -26.907816328796, 75.09867685941747 -26.883826140578385, 75.274302435704 -26.847001329696653 M75.274302435704 -26.847001329696653 C75.42120121655347 -26.803267667795723, 75.56809999740295 -26.759534005894796, 75.67037234602341 -26.729086208503173 M75.274302435704 -26.847001329696653 C75.36465639657693 -26.82010179007232, 75.45501035744985 -26.793202250447994, 75.67037234602341 -26.729086208503173 M75.67037234602341 -26.729086208503173 C75.75362383824844 -26.696601375432866, 75.83687533047348 -26.664116542362564, 76.05535212326485 -26.578866633275286 M75.67037234602341 -26.729086208503173 C75.81459269296735 -26.67281125449812, 75.95881303991129 -26.616536300493067, 76.05535212326485 -26.578866633275286 M76.05535212326485 -26.578866633275286 C76.14000296456676 -26.537483358629583, 76.22465380586867 -26.496100083983883, 76.42661196518537 -26.397368756032446 M76.05535212326485 -26.578866633275286 C76.16848456104542 -26.523559554550417, 76.28161699882598 -26.46825247582555, 76.42661196518537 -26.397368756032446 M76.42661196518537 -26.397368756032446 C76.50361587937581 -26.35148438265292, 76.58061979356626 -26.305600009273395, 76.78161579061214 -26.185832391312644 M76.42661196518537 -26.397368756032446 C76.5135560647127 -26.345561317828817, 76.60050016424005 -26.29375387962519, 76.78161579061214 -26.185832391312644 M76.78161579061214 -26.185832391312644 C76.905256898198 -26.097554337266246, 77.02889800578389 -26.00927628321985, 77.11793856344833 -25.94570254698197 M76.78161579061214 -26.185832391312644 C76.86944584794838 -26.12312293569698, 76.95727590528465 -26.060413480081316, 77.11793856344833 -25.94570254698197 M77.11793856344833 -25.94570254698197 C77.22341256126482 -25.856370627677514, 77.32888655908131 -25.767038708373054, 77.4332828581287 -25.678619553365657 M77.11793856344833 -25.94570254698197 C77.22473316679142 -25.85525213185126, 77.33152777013453 -25.764801716720548, 77.4332828581287 -25.678619553365657 M77.4332828581287 -25.678619553365657 C77.52496228657303 -25.58694012492134, 77.61664171501734 -25.49526069647703, 77.72549455336566 -25.386407858128706 M77.4332828581287 -25.678619553365657 C77.53475631146901 -25.577146100025352, 77.63622976480931 -25.47567264668505, 77.72549455336566 -25.386407858128706 M77.72549455336566 -25.386407858128706 C77.81437757801152 -25.28146386923412, 77.90326060265735 -25.176519880339534, 77.99257754698196 -25.07106356344834 M77.72549455336566 -25.386407858128706 C77.781315444295 -25.320500256749078, 77.83713633522434 -25.254592655369446, 77.99257754698196 -25.07106356344834 M77.99257754698196 -25.07106356344834 C78.06761966122258 -24.965960542991883, 78.14266177546318 -24.860857522535426, 78.23270739131264 -24.734740790612136 M77.99257754698196 -25.07106356344834 C78.05442259251681 -24.984444187758335, 78.11626763805167 -24.89782481206833, 78.23270739131264 -24.734740790612136 M78.23270739131264 -24.734740790612136 C78.27583032798412 -24.662371165170715, 78.3189532646556 -24.590001539729293, 78.44424375603245 -24.37973696518537 M78.23270739131264 -24.734740790612136 C78.30972466494464 -24.605489128376586, 78.38674193857665 -24.476237466141033, 78.44424375603245 -24.37973696518537 M78.44424375603245 -24.37973696518537 C78.51567015255914 -24.233631935824764, 78.58709654908583 -24.087526906464163, 78.62574163327528 -24.008477123264846 M78.44424375603245 -24.37973696518537 C78.49257346004661 -24.280876975498764, 78.5409031640608 -24.182016985812158, 78.62574163327528 -24.008477123264846 M78.62574163327528 -24.008477123264846 C78.6757812244373 -23.88023664175917, 78.7258208155993 -23.751996160253487, 78.77596120850318 -23.623497346023417 M78.62574163327528 -24.008477123264846 C78.67615244600093 -23.8792852824263, 78.72656325872656 -23.750093441587754, 78.77596120850318 -23.623497346023417 M78.77596120850318 -23.623497346023417 C78.8099079219142 -23.509472345665017, 78.84385463532524 -23.395447345306618, 78.89387632969665 -23.227427435703994 M78.77596120850318 -23.623497346023417 C78.8034685477355 -23.53110182225513, 78.83097588696782 -23.438706298486842, 78.89387632969665 -23.227427435703994 M78.89387632969665 -23.227427435703994 C78.92666053694693 -23.07107238177261, 78.9594447441972 -22.91471732784122, 78.97868151701361 -22.82297295140367 M78.89387632969665 -23.227427435703994 C78.91703255803048 -23.116990318760926, 78.94018878636432 -23.006553201817855, 78.97868151701361 -22.82297295140367 M78.97868151701361 -22.82297295140367 C78.99529829848811 -22.68966529954984, 79.0119150799626 -22.556357647696014, 79.02979746503335 -22.412896727361662 M78.97868151701361 -22.82297295140367 C78.99329064355385 -22.705771653564934, 79.00789977009408 -22.588570355726198, 79.02979746503335 -22.412896727361662 M79.02979746503335 -22.412896727361662 C79.03344101618109 -22.324803782576943, 79.03708456732883 -22.236710837792224, 79.046875 -22 M79.02979746503335 -22.412896727361662 C79.03524936038468 -22.281082050777716, 79.040701255736 -22.149267374193766, 79.046875 -22 M79.046875 -22 C79.046875 -22, 79.046875 -22, 79.046875 -22 M79.046875 -22 C79.046875 -22, 79.046875 -22, 79.046875 -22 M79.046875 -22 C79.046875 -12.762573230035823, 79.046875 -3.525146460071646, 79.046875 22 M79.046875 -22 C79.046875 -6.011375859577665, 79.046875 9.97724828084467, 79.046875 22 M79.046875 22 C79.046875 22, 79.046875 22, 79.046875 22 M79.046875 22 C79.046875 22, 79.046875 22, 79.046875 22 M79.046875 22 C79.04162996704137 22.126813205052674, 79.03638493408276 22.253626410105348, 79.02979746503335 22.412896727361662 M79.046875 22 C79.04047462250821 22.15474686044566, 79.03407424501641 22.309493720891314, 79.02979746503335 22.412896727361662 M79.02979746503335 22.412896727361662 C79.01642809488844 22.52015211514654, 79.00305872474351 22.627407502931423, 78.97868151701361 22.82297295140367 M79.02979746503335 22.412896727361662 C79.01408574819706 22.53894352416478, 78.99837403136077 22.664990320967892, 78.97868151701361 22.82297295140367 M78.97868151701361 22.82297295140367 C78.95149134067346 22.952648848570114, 78.92430116433329 23.082324745736553, 78.89387632969665 23.227427435703994 M78.97868151701361 22.82297295140367 C78.94799077468099 22.96934381332443, 78.91730003234836 23.115714675245187, 78.89387632969665 23.227427435703994 M78.89387632969665 23.227427435703994 C78.86062662020942 23.339111241152043, 78.82737691072218 23.450795046600092, 78.77596120850318 23.623497346023417 M78.89387632969665 23.227427435703994 C78.8488012356771 23.37883200761355, 78.80372614165756 23.530236579523102, 78.77596120850318 23.623497346023417 M78.77596120850318 23.623497346023417 C78.73457597994204 23.729558597018062, 78.69319075138088 23.835619848012712, 78.62574163327528 24.008477123264846 M78.77596120850318 23.623497346023417 C78.73300106511431 23.733594757808916, 78.69004092172543 23.84369216959442, 78.62574163327528 24.008477123264846 M78.62574163327528 24.008477123264846 C78.55408417828598 24.15505479026513, 78.48242672329665 24.301632457265416, 78.44424375603245 24.379736965185366 M78.62574163327528 24.008477123264846 C78.58859979280811 24.084451972282114, 78.55145795234094 24.16042682129938, 78.44424375603245 24.379736965185366 M78.44424375603245 24.379736965185366 C78.3852071992623 24.47881309103819, 78.32617064249214 24.577889216891016, 78.23270739131264 24.734740790612133 M78.44424375603245 24.379736965185366 C78.37291701311479 24.49943868467242, 78.30159027019712 24.61914040415947, 78.23270739131264 24.734740790612133 M78.23270739131264 24.734740790612133 C78.14394424926562 24.859061306215356, 78.05518110721857 24.983381821818583, 77.99257754698196 25.07106356344834 M78.23270739131264 24.734740790612133 C78.15717192742176 24.840534790246224, 78.08163646353086 24.946328789880315, 77.99257754698196 25.07106356344834 M77.99257754698196 25.07106356344834 C77.90497977880958 25.17449005289222, 77.81738201063719 25.277916542336104, 77.72549455336566 25.386407858128706 M77.99257754698196 25.07106356344834 C77.902096632506 25.177894177300328, 77.81161571803005 25.28472479115231, 77.72549455336566 25.386407858128706 M77.72549455336566 25.386407858128706 C77.61162057232178 25.50028183917259, 77.49774659127789 25.614155820216475, 77.4332828581287 25.678619553365657 M77.72549455336566 25.386407858128706 C77.66684854802662 25.445053863467752, 77.60820254268758 25.503699868806795, 77.4332828581287 25.678619553365657 M77.4332828581287 25.678619553365657 C77.31801591841833 25.776245671364855, 77.20274897870794 25.873871789364056, 77.11793856344833 25.94570254698197 M77.4332828581287 25.678619553365657 C77.32828475353115 25.76754841167393, 77.2232866489336 25.856477269982204, 77.11793856344833 25.94570254698197 M77.11793856344833 25.94570254698197 C77.00611069902386 26.025546107528374, 76.89428283459938 26.105389668074775, 76.78161579061214 26.185832391312644 M77.11793856344833 25.94570254698197 C77.01991326704284 26.01569126338026, 76.92188797063736 26.085679979778547, 76.78161579061214 26.185832391312644 M76.78161579061214 26.185832391312644 C76.65434108026164 26.261671657314757, 76.52706636991115 26.33751092331687, 76.42661196518537 26.397368756032446 M76.78161579061214 26.185832391312644 C76.69721438005907 26.23612471575213, 76.61281296950598 26.286417040191616, 76.42661196518537 26.397368756032446 M76.42661196518537 26.397368756032446 C76.3005875426984 26.45897834204051, 76.1745631202114 26.520587928048574, 76.05535212326485 26.578866633275286 M76.42661196518537 26.397368756032446 C76.2806586040193 26.468721006496885, 76.13470524285322 26.54007325696132, 76.05535212326485 26.578866633275286 M76.05535212326485 26.578866633275286 C75.91436183194779 26.633881215663653, 75.77337154063073 26.688895798052023, 75.67037234602341 26.729086208503173 M76.05535212326485 26.578866633275286 C75.92277203322465 26.630599544942033, 75.79019194318444 26.68233245660878, 75.67037234602341 26.729086208503173 M75.67037234602341 26.729086208503173 C75.55368666372512 26.763825041247753, 75.43700098142682 26.798563873992336, 75.274302435704 26.847001329696653 M75.67037234602341 26.729086208503173 C75.5559670931118 26.763146128004163, 75.4415618402002 26.79720604750515, 75.274302435704 26.847001329696653 M75.274302435704 26.847001329696653 C75.15787512632583 26.87141356930306, 75.04144781694767 26.895825808909464, 74.86984795140367 26.931806517013612 M75.274302435704 26.847001329696653 C75.19186586693966 26.864286460476993, 75.10942929817533 26.881571591257337, 74.86984795140367 26.931806517013612 M74.86984795140367 26.931806517013612 C74.73466661437388 26.948656853101728, 74.59948527734409 26.965507189189843, 74.45977172736166 26.982922465033347 M74.86984795140367 26.931806517013612 C74.76465526744374 26.94491877139489, 74.65946258348383 26.95803102577616, 74.45977172736166 26.982922465033347 M74.45977172736166 26.982922465033347 C74.37454371860561 26.98644752155043, 74.28931570984956 26.98997257806752, 74.046875 27 M74.45977172736166 26.982922465033347 C74.32854973189194 26.98834984691246, 74.19732773642222 26.993777228791576, 74.046875 27 M74.046875 27 C74.046875 27, 74.046875 27, 74.046875 27 M74.046875 27 C74.046875 27, 74.046875 27, 74.046875 27 M74.046875 27 C16.966682906463724 27, -40.11350918707255 27, -74.046875 27 M74.046875 27 C18.47307450166158 27, -37.10072599667684 27, -74.046875 27 M-74.046875 27 C-74.046875 27, -74.046875 27, -74.046875 27 M-74.046875 27 C-74.046875 27, -74.046875 27, -74.046875 27 M-74.046875 27 C-74.13411135923735 26.996391877492567, -74.22134771847469 26.992783754985133, -74.45977172736166 26.982922465033347 M-74.046875 27 C-74.15934808588965 26.99534807875722, -74.27182117177928 26.990696157514442, -74.45977172736166 26.982922465033347 M-74.45977172736166 26.982922465033347 C-74.59001962580085 26.966687081424237, -74.72026752424004 26.950451697815126, -74.86984795140367 26.931806517013612 M-74.45977172736166 26.982922465033347 C-74.54638266935426 26.9721264223728, -74.63299361134685 26.96133037971225, -74.86984795140367 26.931806517013612 M-74.86984795140367 26.931806517013612 C-74.99112761070663 26.906376846620127, -75.11240727000958 26.880947176226645, -75.274302435704 26.847001329696653 M-74.86984795140367 26.931806517013612 C-74.97589090396062 26.909571648062183, -75.08193385651757 26.887336779110754, -75.274302435704 26.847001329696653 M-75.274302435704 26.847001329696653 C-75.3939172294463 26.81139046269269, -75.5135320231886 26.775779595688725, -75.67037234602341 26.729086208503173 M-75.274302435704 26.847001329696653 C-75.36590920511553 26.819728812810446, -75.45751597452707 26.792456295924243, -75.67037234602341 26.729086208503173 M-75.67037234602341 26.729086208503173 C-75.81472440020472 26.672759862174626, -75.95907645438602 26.616433515846076, -76.05535212326485 26.578866633275286 M-75.67037234602341 26.729086208503173 C-75.75653406681667 26.695465800721728, -75.84269578760994 26.661845392940283, -76.05535212326485 26.578866633275286 M-76.05535212326485 26.578866633275286 C-76.16149823127688 26.52697496305824, -76.2676443392889 26.475083292841195, -76.42661196518537 26.397368756032446 M-76.05535212326485 26.578866633275286 C-76.15379601547319 26.530740346923096, -76.25223990768151 26.48261406057091, -76.42661196518537 26.397368756032446 M-76.42661196518537 26.397368756032446 C-76.56291931558434 26.316147204818673, -76.6992266659833 26.2349256536049, -76.78161579061214 26.185832391312644 M-76.42661196518537 26.397368756032446 C-76.50917839748134 26.348169841303072, -76.59174482977731 26.2989709265737, -76.78161579061214 26.185832391312644 M-76.78161579061214 26.185832391312644 C-76.88029231810405 26.115378704855715, -76.97896884559597 26.04492501839879, -77.11793856344833 25.94570254698197 M-76.78161579061214 26.185832391312644 C-76.852785860685 26.135017937972243, -76.92395593075786 26.084203484631843, -77.11793856344833 25.94570254698197 M-77.11793856344833 25.94570254698197 C-77.2012060913342 25.87517854831147, -77.28447361922008 25.804654549640976, -77.4332828581287 25.67861955336566 M-77.11793856344833 25.94570254698197 C-77.22239313062056 25.857234041390228, -77.32684769779279 25.768765535798487, -77.4332828581287 25.67861955336566 M-77.4332828581287 25.67861955336566 C-77.51819570498421 25.593706706510165, -77.6031085518397 25.508793859654666, -77.72549455336566 25.386407858128706 M-77.4332828581287 25.67861955336566 C-77.53872169181385 25.573180719680515, -77.644160525499 25.46774188599537, -77.72549455336566 25.386407858128706 M-77.72549455336566 25.386407858128706 C-77.80914607582051 25.287640692199165, -77.89279759827534 25.188873526269624, -77.99257754698196 25.07106356344834 M-77.72549455336566 25.386407858128706 C-77.79195495173938 25.30793821404704, -77.8584153501131 25.229468569965373, -77.99257754698196 25.07106356344834 M-77.99257754698196 25.07106356344834 C-78.05556818145341 24.982839690621535, -78.11855881592487 24.894615817794726, -78.23270739131264 24.734740790612133 M-77.99257754698196 25.07106356344834 C-78.06080154819861 24.975509904438905, -78.12902554941525 24.879956245429472, -78.23270739131264 24.734740790612133 M-78.23270739131264 24.734740790612133 C-78.2815604956651 24.652754703009325, -78.33041360001756 24.570768615406518, -78.44424375603245 24.37973696518537 M-78.23270739131264 24.734740790612133 C-78.31129843737142 24.602847997464668, -78.3898894834302 24.470955204317203, -78.44424375603245 24.37973696518537 M-78.44424375603245 24.37973696518537 C-78.50946924049175 24.246316104195632, -78.57469472495104 24.112895243205895, -78.62574163327528 24.00847712326485 M-78.44424375603245 24.37973696518537 C-78.51252070533093 24.240074233100323, -78.58079765462942 24.100411501015273, -78.62574163327528 24.00847712326485 M-78.62574163327528 24.00847712326485 C-78.67217264733465 23.88948463228923, -78.718603661394 23.77049214131361, -78.77596120850318 23.623497346023417 M-78.62574163327528 24.00847712326485 C-78.66475286705932 23.908499899462228, -78.70376410084337 23.808522675659603, -78.77596120850318 23.623497346023417 M-78.77596120850318 23.623497346023417 C-78.81754285151911 23.483827069187306, -78.85912449453505 23.344156792351193, -78.89387632969665 23.227427435703994 M-78.77596120850318 23.623497346023417 C-78.80093131042425 23.5396242521535, -78.8259014123453 23.45575115828359, -78.89387632969665 23.227427435703994 M-78.89387632969665 23.227427435703994 C-78.91260984839963 23.138083188189707, -78.9313433671026 23.048738940675424, -78.97868151701361 22.82297295140367 M-78.89387632969665 23.227427435703994 C-78.91517215797516 23.12586297347431, -78.93646798625367 23.024298511244627, -78.97868151701361 22.82297295140367 M-78.97868151701361 22.82297295140367 C-78.98893634878975 22.740703858178243, -78.99919118056587 22.65843476495282, -79.02979746503335 22.412896727361662 M-78.97868151701361 22.82297295140367 C-78.99417671894221 22.698663139225328, -79.00967192087083 22.574353327046982, -79.02979746503335 22.412896727361662 M-79.02979746503335 22.412896727361662 C-79.03465542631606 22.295442052597693, -79.03951338759876 22.177987377833727, -79.046875 22 M-79.02979746503335 22.412896727361662 C-79.0350086798678 22.286901169166512, -79.04021989470223 22.160905610971366, -79.046875 22 M-79.046875 22 C-79.046875 22, -79.046875 22, -79.046875 22 M-79.046875 22 C-79.046875 22, -79.046875 22, -79.046875 22 M-79.046875 22 C-79.046875 9.21415588598421, -79.046875 -3.5716882280315794, -79.046875 -22 M-79.046875 22 C-79.046875 12.95499341943302, -79.046875 3.9099868388660397, -79.046875 -22 M-79.046875 -22 C-79.046875 -22, -79.046875 -22, -79.046875 -22 M-79.046875 -22 C-79.046875 -22, -79.046875 -22, -79.046875 -22 M-79.046875 -22 C-79.04097268220907 -22.142704887121088, -79.03507036441815 -22.285409774242176, -79.02979746503335 -22.41289672736166 M-79.046875 -22 C-79.0423062003602 -22.110463390818932, -79.0377374007204 -22.22092678163786, -79.02979746503335 -22.41289672736166 M-79.02979746503335 -22.41289672736166 C-79.01597958826834 -22.523750246617283, -79.00216171150332 -22.63460376587291, -78.97868151701361 -22.82297295140367 M-79.02979746503335 -22.41289672736166 C-79.01250472715355 -22.55162722005171, -78.99521198927376 -22.69035771274176, -78.97868151701361 -22.82297295140367 M-78.97868151701361 -22.82297295140367 C-78.95460924734917 -22.937778869780825, -78.93053697768472 -23.052584788157976, -78.89387632969665 -23.227427435703994 M-78.97868151701361 -22.82297295140367 C-78.94843516477593 -22.967224419778333, -78.91818881253823 -23.111475888153, -78.89387632969665 -23.227427435703994 M-78.89387632969665 -23.227427435703994 C-78.86525759356213 -23.323556075860786, -78.83663885742763 -23.419684716017578, -78.77596120850318 -23.623497346023417 M-78.89387632969665 -23.227427435703994 C-78.85742782227275 -23.349855814020053, -78.82097931484887 -23.47228419233611, -78.77596120850318 -23.623497346023417 M-78.77596120850318 -23.623497346023417 C-78.73491863049763 -23.728680458903455, -78.6938760524921 -23.833863571783493, -78.62574163327528 -24.008477123264846 M-78.77596120850318 -23.623497346023417 C-78.7198886960942 -23.76719887962064, -78.66381618368524 -23.910900413217867, -78.62574163327528 -24.008477123264846 M-78.62574163327528 -24.008477123264846 C-78.56306203585416 -24.13669028908097, -78.50038243843302 -24.264903454897098, -78.44424375603245 -24.379736965185366 M-78.62574163327528 -24.008477123264846 C-78.5682745626249 -24.126027895149385, -78.5108074919745 -24.243578667033923, -78.44424375603245 -24.379736965185366 M-78.44424375603245 -24.379736965185366 C-78.38268234593859 -24.483050341639267, -78.32112093584473 -24.586363718093164, -78.23270739131264 -24.734740790612133 M-78.44424375603245 -24.379736965185366 C-78.37874861624985 -24.489651991854572, -78.31325347646724 -24.59956701852378, -78.23270739131264 -24.734740790612133 M-78.23270739131264 -24.734740790612133 C-78.17975172021528 -24.808909822747687, -78.12679604911791 -24.88307885488324, -77.99257754698196 -25.07106356344834 M-78.23270739131264 -24.734740790612133 C-78.18133493148001 -24.80669239740423, -78.12996247164737 -24.878644004196325, -77.99257754698196 -25.07106356344834 M-77.99257754698196 -25.07106356344834 C-77.89138572971278 -25.19054051633145, -77.7901939124436 -25.310017469214557, -77.72549455336566 -25.386407858128706 M-77.99257754698196 -25.07106356344834 C-77.89280467464175 -25.18886517121959, -77.79303180230154 -25.30666677899084, -77.72549455336566 -25.386407858128706 M-77.72549455336566 -25.386407858128706 C-77.64629576480695 -25.46560664668741, -77.56709697624825 -25.544805435246115, -77.4332828581287 -25.678619553365657 M-77.72549455336566 -25.386407858128706 C-77.6243102249782 -25.487592186516157, -77.52312589659076 -25.58877651490361, -77.4332828581287 -25.678619553365657 M-77.4332828581287 -25.678619553365657 C-77.30839899173067 -25.78439079278439, -77.18351512533262 -25.89016203220312, -77.11793856344833 -25.945702546981966 M-77.4332828581287 -25.678619553365657 C-77.34082846107218 -25.75692443331878, -77.24837406401565 -25.835229313271903, -77.11793856344833 -25.945702546981966 M-77.11793856344833 -25.945702546981966 C-77.0208256934527 -26.015039803445163, -76.92371282345707 -26.08437705990836, -76.78161579061214 -26.185832391312644 M-77.11793856344833 -25.945702546981966 C-76.98568054132173 -26.04013295975753, -76.85342251919514 -26.13456337253309, -76.78161579061214 -26.185832391312644 M-76.78161579061214 -26.185832391312644 C-76.65171997755692 -26.263233495520442, -76.52182416450171 -26.34063459972824, -76.42661196518537 -26.397368756032446 M-76.78161579061214 -26.185832391312644 C-76.70354242258529 -26.232354020858402, -76.62546905455844 -26.278875650404164, -76.42661196518537 -26.397368756032446 M-76.42661196518537 -26.397368756032446 C-76.29474007340227 -26.46183699558892, -76.16286818161916 -26.5263052351454, -76.05535212326485 -26.578866633275286 M-76.42661196518537 -26.397368756032446 C-76.31227753738906 -26.453263451869887, -76.19794310959277 -26.50915814770733, -76.05535212326485 -26.578866633275286 M-76.05535212326485 -26.578866633275286 C-75.92507123522994 -26.629702393535602, -75.79479034719503 -26.68053815379592, -75.67037234602341 -26.729086208503173 M-76.05535212326485 -26.578866633275286 C-75.94175149370406 -26.623193736481905, -75.82815086414327 -26.667520839688525, -75.67037234602341 -26.729086208503173 M-75.67037234602341 -26.729086208503173 C-75.57949586257259 -26.756141309838945, -75.48861937912174 -26.783196411174718, -75.274302435704 -26.847001329696653 M-75.67037234602341 -26.729086208503173 C-75.52953667780113 -26.771014803567116, -75.38870100957885 -26.812943398631056, -75.274302435704 -26.847001329696653 M-75.274302435704 -26.847001329696653 C-75.13943803531062 -26.875279420759323, -75.00457363491724 -26.903557511821994, -74.86984795140367 -26.931806517013612 M-75.274302435704 -26.847001329696653 C-75.18039052542012 -26.866692586567485, -75.08647861513626 -26.886383843438317, -74.86984795140367 -26.931806517013612 M-74.86984795140367 -26.931806517013612 C-74.72837879722583 -26.94944062869186, -74.58690964304797 -26.96707474037011, -74.45977172736167 -26.982922465033347 M-74.86984795140367 -26.931806517013612 C-74.77732010582665 -26.9433401009368, -74.68479226024964 -26.95487368485999, -74.45977172736167 -26.982922465033347 M-74.45977172736167 -26.982922465033347 C-74.35370288895443 -26.98730950464092, -74.24763405054719 -26.991696544248487, -74.046875 -27 M-74.45977172736167 -26.982922465033347 C-74.35830258449674 -26.98711925982604, -74.25683344163181 -26.991316054618736, -74.046875 -27 M-74.046875 -27 C-74.046875 -27, -74.046875 -27, -74.046875 -27 M-74.046875 -27 C-74.046875 -27, -74.046875 -27, -74.046875 -27" stroke="#ccc" stroke-width="1.3" fill="none" stroke-dasharray="0 0" style=""></path></g><g class="label" style="" transform="translate(-64.046875, -12)"><rect></rect><foreignObject width="128.09375" height="24"><div xmlns="http://www.w3.org/1999/xhtml" style="display: table-cell; white-space: nowrap; line-height: 1.5; max-width: 200px; text-align: center;"><span class="nodeLabel"><p>Inference Pipeline</p></span></div></foreignObject></g></g><g class="node default" id="flowchart-C-3" transform="translate(499.1796875, 100.1640625)"><polygon points="92.1640625,0 184.328125,-92.1640625 92.1640625,-184.328125 0,-92.1640625" class="label-container" transform="translate(-91.6640625, 92.1640625)"></polygon><g class="label" style="" transform="translate(-65.1640625, -12)"><rect></rect><foreignObject width="130.328125" height="24"><div xmlns="http://www.w3.org/1999/xhtml" style="display: table-cell; white-space: nowrap; line-height: 1.5; max-width: 200px; text-align: center;"><span class="nodeLabel"><p>Confidence &gt; 0.7?</p></span></div></foreignObject></g></g><g class="node default" id="flowchart-D-5" transform="translate(787.71875, 48.1640625)"><rect class="basic label-container" style="" x="-69.5625" y="-27" width="139.125" height="54"></rect><g class="label" style="" transform="translate(-39.5625, -12)"><rect></rect><foreignObject width="79.125" height="24"><div xmlns="http://www.w3.org/1999/xhtml" style="display: table-cell; white-space: nowrap; line-height: 1.5; max-width: 200px; text-align: center;"><span class="nodeLabel"><p>Auto-Fill UI</p></span></div></foreignObject></g></g><g class="node default" id="flowchart-E-7" transform="translate(787.71875, 152.1640625)"><rect class="basic label-container" style="" x="-120.265625" y="-27" width="240.53125" height="54"></rect><g class="label" style="" transform="translate(-90.265625, -12)"><rect></rect><foreignObject width="180.53125" height="24"><div xmlns="http://www.w3.org/1999/xhtml" style="display: table-cell; white-space: nowrap; line-height: 1.5; max-width: 200px; text-align: center;"><span class="nodeLabel"><p>Request User Verification</p></span></div></foreignObject></g></g><g class="node default" id="flowchart-F-9" transform="translate(1059.109375, 100.1640625)"><rect class="basic label-container" style="fill:#bbf !important;stroke:#333 !important;stroke-width:2px !important" x="-101.125" y="-27" width="202.25" height="54"></rect><g class="label" style="" transform="translate(-71.125, -12)"><rect></rect><foreignObject width="142.25" height="24"><div xmlns="http://www.w3.org/1999/xhtml" style="display: table-cell; white-space: nowrap; line-height: 1.5; max-width: 200px; text-align: center;"><span class="nodeLabel"><p>User Confirms/Edits</p></span></div></foreignObject></g></g><g class="node default" id="flowchart-G-13" transform="translate(1290.6640625, 100.1640625)"><path d="M0,14.068051380158515 a80.4296875,14.068051380158515 0,0,0 160.859375,0 a80.4296875,14.068051380158515 0,0,0 -160.859375,0 l0,53.068051380158515 a80.4296875,14.068051380158515 0,0,0 160.859375,0 l0,-53.068051380158515" class="basic label-container" style="fill:#f9f !important;stroke:#333 !important;stroke-width:2px !important" transform="translate(-80.4296875, -40.60207707023777)"></path><g class="label" style="" transform="translate(-72.9296875, -2)"><rect></rect><foreignObject width="145.859375" height="24"><div xmlns="http://www.w3.org/1999/xhtml" style="display: table-cell; white-space: nowrap; line-height: 1.5; max-width: 200px; text-align: center;"><span class="nodeLabel"><p>CorrectionEvent Log</p></span></div></foreignObject></g></g><g class="node default" id="flowchart-H-15" transform="translate(1516.4609375, 100.1640625)"><rect class="basic label-container" style="" x="-95.3671875" y="-27" width="190.734375" height="54"></rect><g class="label" style="" transform="translate(-65.3671875, -12)"><rect></rect><foreignObject width="130.734375" height="24"><div xmlns="http://www.w3.org/1999/xhtml" style="display: table-cell; white-space: nowrap; line-height: 1.5; max-width: 200px; text-align: center;"><span class="nodeLabel"><p>Dashboard &amp; EDA</p></span></div></foreignObject></g></g><g class="node default" id="flowchart-I-17" transform="translate(1751.421875, 163.74609375)"><rect class="basic label-container" style="" x="-89.59375" y="-27" width="179.1875" height="54"></rect><g class="label" style="" transform="translate(-59.59375, -12)"><rect></rect><foreignObject width="119.1875" height="24"><div xmlns="http://www.w3.org/1999/xhtml" style="display: table-cell; white-space: nowrap; line-height: 1.5; max-width: 200px; text-align: center;"><span class="nodeLabel"><p>Tune Thresholds</p></span></div></foreignObject></g></g></g></g></g></g></svg>